<svg width="247" height="75" viewBox="0 0 247 75" xmlns="http://www.w3.org/2000/svg"><title>Group 3</title><g fill="#FEFEFE" fill-rule="evenodd"><path d="M11.9 72.06c-4.888 0-8.3-4.004-8.3-9.056 0-4.776 3.442-9.057 8.3-9.057 2.09 0 4.15.894 5.44 2.65l2.244-1.633c-1.844-2.404-4.734-3.42-7.684-3.42-6.456 0-11.067 5.052-11.067 11.46 0 6.623 4.827 11.46 11.067 11.46 3.472 0 6.3-1.2 8.237-3.82L18.2 69.012c-1.536 1.97-3.657 3.05-6.3 3.05zm24.5-10.72H24.78V52.1H22.2v21.81h2.58V63.744H36.4V73.91h2.584V52.1H36.4m11.347 9.61h-2.305v-7.208h3.626c2.52 0 5.256.462 5.256 3.603 0 3.605-3.718 3.605-6.577 3.605m9.344-3.605c0-5.39-4.456-6.007-8.666-6.007H42.86V73.91h2.582v-9.797h3.32l5.902 9.798h3.166l-6.18-10.044c3.382-.524 5.44-2.587 5.44-5.76M70.22 72.06c-5.103 0-8.607-4.035-8.607-9.056 0-5.022 3.504-9.057 8.606-9.057s8.607 4.035 8.607 9.057c0 5.02-3.505 9.057-8.608 9.057m0-20.515c-6.61 0-11.374 4.866-11.374 11.46 0 6.59 4.765 11.46 11.373 11.46 6.61 0 11.374-4.87 11.374-11.46 0-6.594-4.765-11.46-11.375-11.46m29.916 18.666h-.062l-12.6-18.114h-3.26V73.91h2.583V55.795h.06L99.457 73.91h3.258V52.1h-2.582m7.072 21.81h2.582V52.1h-2.582m16.878 19.96c-4.887 0-8.3-4.004-8.3-9.056 0-4.776 3.444-9.057 8.3-9.057 2.09 0 4.15.894 5.44 2.65l2.244-1.633c-1.845-2.404-4.732-3.42-7.684-3.42-6.455 0-11.067 5.052-11.067 11.46 0 6.623 4.827 11.46 11.067 11.46 3.473 0 6.3-1.2 8.237-3.82l-1.936-1.632c-1.537 1.97-3.658 3.05-6.3 3.05m12.881-19.964h-2.58V73.91h12.54v-2.405h-9.96m14.45-7.762h10.358V61.34h-10.358V54.5h11.096v-2.4h-13.676v21.81h14.23v-2.405h-11.65m-11.769-33.742c0-12.54-17.11-8.405-17.11-13.286 0-1.966 2.028-2.712 3.72-2.712 2.435 0 4.395.95 5.883 2.78l6.22-6.17c-3.04-3.253-7.844-4.338-12.172-4.338-6.9 0-13.797 3.39-13.797 11.117 0 12.54 17.112 8.067 17.112 13.354 0 1.762-2.3 2.373-4.6 2.373-3.043 0-5.274-1.287-7.17-3.593l-6.154 6.848c3.248 3.32 8.32 4.473 12.918 4.473 7.035 0 15.15-2.44 15.15-10.845M2.145 47.796H12.29V14.85H2.145m22.859 16.54c0-4.27.813-8.404 6.088-8.404 5.207 0 5.274 4.88 5.274 8.677v16.132h10.148V29.63c0-8.814-1.895-15.592-12.176-15.592-4.937 0-8.25 2.71-9.604 5.287H24.6V14.85h-9.74v32.945h10.144V31.39z"/><path d="M81.82 14.85H71.605l-7.71 22.37h-.134l-8.32-22.37H44.485l13.594 32.946h10.754m26.58-26.438c3.652 0 6.29 2.848 6.222 6.237h-13.39c.27-3.186 2.706-6.237 7.168-6.237m.473 19.523c-3.92 0-6.83-2.508-7.642-6.37h23.537v-3.187c0-10.507-5.95-17.286-15.42-17.286-10.144 0-18.26 6.78-18.26 17.286 0 10.507 8.116 17.286 18.26 17.286 5.275 0 10.62-2.375 13.865-6.508l-7.1-5.22c-1.693 2.304-3.924 4-7.24 4m47.548-2.239c0 7.186 5.21 9.966 11.972 9.966 2.367 0 4.87-.206 7.1-1.02v-8.47c-.88.81-3.043.947-4.124.947-4.397 0-4.802-2.576-4.802-6.102v-10.98h8.927V14.85h-8.927V5.09h-10.146v9.76h-4.75v8.136h4.75v15.657z"/><path d="M179.957 39.66c-5.072 0-8.115-3.388-8.115-8.338 0-4.948 3.043-8.337 8.115-8.337s8.117 3.39 8.117 8.337c0 4.95-3.045 8.338-8.117 8.338m0-25.623c-10.144 0-18.26 6.78-18.26 17.285 0 10.508 8.116 17.286 18.26 17.286 10.146 0 18.262-6.778 18.262-17.286 0-10.506-8.117-17.285-18.263-17.285m39.162.003c-4.425.02-7.247 2.12-9.4 6.098h-.137V14.85h-10.143v32.946h10.144v-13.76c0-6.577.95-11.05 8.658-11.05.297 0 .587.017.88.037V14.04zm10.755 10.437c0-1.967 2.03-2.712 3.72-2.712 2.436 0 4.397.95 5.884 2.78l6.222-6.17c-3.044-3.253-7.847-4.338-12.175-4.338-6.9 0-13.797 3.39-13.797 11.117 0 12.54 17.112 8.068 17.112 13.354 0 1.763-2.3 2.373-4.6 2.373-3.044 0-5.275-1.288-7.17-3.592l-6.154 6.847c3.248 3.32 8.32 4.474 12.918 4.474 7.034 0 15.15-2.442 15.15-10.847 0-12.54-17.11-8.405-17.11-13.286M7.217 11.928c3.25 0 5.884-2.64 5.884-5.898 0-3.256-2.633-5.896-5.883-5.896S1.333 2.774 1.333 6.03c0 3.257 2.634 5.898 5.884 5.898"/></g></svg>